<svg width="18" height="18" viewBox="0 0 18 18" fill="none" xmlns="http://www.w3.org/2000/svg">
<path fill-rule="evenodd" clip-rule="evenodd" d="M2.125 5.875V2.125H5.875V5.875H2.125ZM0.25 1.5C0.25 1.16848 0.381696 0.850537 0.616116 0.616116C0.850537 0.381696 1.16848 0.25 1.5 0.25H6.5C6.83152 0.25 7.14946 0.381696 7.38388 0.616116C7.6183 0.850537 7.75 1.16848 7.75 1.5V6.5C7.75 6.83152 7.6183 7.14946 7.38388 7.38388C7.14946 7.6183 6.83152 7.75 6.5 7.75H1.5C1.16848 7.75 0.850537 7.6183 0.616116 7.38388C0.381696 7.14946 0.25 6.83152 0.25 6.5V1.5ZM10.25 1.8125C10.25 1.56386 10.3488 1.3254 10.5246 1.14959C10.7004 0.973772 10.9389 0.875 11.1875 0.875H16.8125C17.0611 0.875 17.2996 0.973772 17.4754 1.14959C17.6512 1.3254 17.75 1.56386 17.75 1.8125C17.75 2.06114 17.6512 2.2996 17.4754 2.47541C17.2996 2.65123 17.0611 2.75 16.8125 2.75H11.1875C10.9389 2.75 10.7004 2.65123 10.5246 2.47541C10.3488 2.2996 10.25 2.06114 10.25 1.8125ZM11.1875 5.25C10.9389 5.25 10.7004 5.34877 10.5246 5.52459C10.3488 5.7004 10.25 5.93886 10.25 6.1875C10.25 6.43614 10.3488 6.6746 10.5246 6.85041C10.7004 7.02623 10.9389 7.125 11.1875 7.125H16.8125C17.0611 7.125 17.2996 7.02623 17.4754 6.85041C17.6512 6.6746 17.75 6.43614 17.75 6.1875C17.75 5.93886 17.6512 5.7004 17.4754 5.52459C17.2996 5.34877 17.0611 5.25 16.8125 5.25H11.1875ZM2.125 12.125V15.875H5.875V12.125H2.125ZM1.5 10.25C1.16848 10.25 0.850537 10.3817 0.616116 10.6161C0.381696 10.8505 0.25 11.1685 0.25 11.5V16.5C0.25 16.8315 0.381696 17.1495 0.616116 17.3839C0.850537 17.6183 1.16848 17.75 1.5 17.75H6.5C6.83152 17.75 7.14946 17.6183 7.38388 17.3839C7.6183 17.1495 7.75 16.8315 7.75 16.5V11.5C7.75 11.1685 7.6183 10.8505 7.38388 10.6161C7.14946 10.3817 6.83152 10.25 6.5 10.25H1.5ZM11.1875 10.875C10.9389 10.875 10.7004 10.9738 10.5246 11.1496C10.3488 11.3254 10.25 11.5639 10.25 11.8125C10.25 12.0611 10.3488 12.2996 10.5246 12.4754C10.7004 12.6512 10.9389 12.75 11.1875 12.75H16.8125C17.0611 12.75 17.2996 12.6512 17.4754 12.4754C17.6512 12.2996 17.75 12.0611 17.75 11.8125C17.75 11.5639 17.6512 11.3254 17.4754 11.1496C17.2996 10.9738 17.0611 10.875 16.8125 10.875H11.1875ZM11.1875 15.25C10.9389 15.25 10.7004 15.3488 10.5246 15.5246C10.3488 15.7004 10.25 15.9389 10.25 16.1875C10.25 16.4361 10.3488 16.6746 10.5246 16.8504C10.7004 17.0262 10.9389 17.125 11.1875 17.125H16.8125C17.0611 17.125 17.2996 17.0262 17.4754 16.8504C17.6512 16.6746 17.75 16.4361 17.75 16.1875C17.75 15.9389 17.6512 15.7004 17.4754 15.5246C17.2996 15.3488 17.0611 15.25 16.8125 15.25H11.1875Z" fill="#EEFFEE" fill-opacity="0.996078"/>
</svg>
