<svg width="10" height="6" viewBox="0 0 10 6" fill="none" xmlns="http://www.w3.org/2000/svg">
<path d="M4.80753 5.77L1.09253 1.312C0.995208 1.19516 0.933203 1.053 0.91378 0.902185C0.894357 0.751368 0.918319 0.598139 0.98286 0.460453C1.0474 0.322767 1.14985 0.206326 1.27819 0.124776C1.40654 0.0432255 1.55546 -5.69899e-05 1.70753 5.63173e-08H8.29153C8.4435 0.000132974 8.5923 0.0435533 8.7205 0.125178C8.84869 0.206803 8.95099 0.323256 9.01541 0.460905C9.07982 0.598555 9.1037 0.751706 9.08424 0.902433C9.06478 1.05316 9.00279 1.19522 8.90553 1.312L5.19153 5.77C5.16807 5.79814 5.13871 5.82077 5.10553 5.8363C5.07235 5.85184 5.03616 5.85989 4.99953 5.85989C4.96289 5.85989 4.92671 5.85184 4.89353 5.8363C4.86035 5.82077 4.83099 5.79814 4.80753 5.77Z" fill="#303030"/>
</svg>
