<svg width="14" height="16" viewBox="0 0 14 16" fill="none" xmlns="http://www.w3.org/2000/svg">
<path d="M8.66665 8V14.5667C8.69999 14.8167 8.61665 15.0833 8.42499 15.2583C8.34789 15.3356 8.25632 15.3969 8.15551 15.4387C8.0547 15.4805 7.94663 15.502 7.83749 15.502C7.72835 15.502 7.62028 15.4805 7.51947 15.4387C7.41866 15.3969 7.32708 15.3356 7.24999 15.2583L5.57499 13.5833C5.48415 13.4944 5.41508 13.3858 5.37316 13.2658C5.33124 13.1458 5.31761 13.0178 5.33332 12.8917V8H5.30832L0.508321 1.85C0.372994 1.67628 0.311932 1.45605 0.338477 1.23744C0.365022 1.01883 0.477016 0.819622 0.649987 0.683333C0.808321 0.566667 0.983321 0.5 1.16665 0.5H12.8333C13.0167 0.5 13.1917 0.566667 13.35 0.683333C13.523 0.819622 13.635 1.01883 13.6615 1.23744C13.688 1.45605 13.627 1.67628 13.4917 1.85L8.69165 8H8.66665Z" fill="#303030"/>
</svg>
