<svg width="18" height="20" viewBox="0 0 18 20" fill="none" xmlns="http://www.w3.org/2000/svg">
<path d="M11 12H7V19H11V12Z" fill="#D6D1D5"/>
<path d="M17.42 8.18001L9.71 0.30001C9.61704 0.206281 9.50644 0.131887 9.38458 0.0811183C9.26272 0.0303497 9.13201 0.00421143 9 0.00421143C8.86799 0.00421143 8.73728 0.0303497 8.61542 0.0811183C8.49356 0.131887 8.38296 0.206281 8.29 0.30001L0.580001 8.19001C0.393438 8.37808 0.246095 8.60133 0.146529 8.84682C0.0469624 9.0923 -0.00284422 9.35512 9.23348e-07 9.62001V18C-0.000773901 18.5119 0.194774 19.0046 0.546375 19.3767C0.897977 19.7488 1.37886 19.9719 1.89 20H5V11C5 10.7348 5.10536 10.4804 5.29289 10.2929C5.48043 10.1054 5.73478 10 6 10H12C12.2652 10 12.5196 10.1054 12.7071 10.2929C12.8946 10.4804 13 10.7348 13 11V20H16.11C16.6211 19.9719 17.102 19.7488 17.4536 19.3767C17.8052 19.0046 18.0008 18.5119 18 18V9.62001C18.0008 9.08294 17.7928 8.56659 17.42 8.18001Z" fill="#D6D1D5"/>
</svg>
