<svg width="20" height="20" viewBox="0 0 20 20" fill="none" xmlns="http://www.w3.org/2000/svg">
<path fill-rule="evenodd" clip-rule="evenodd" d="M1.11328 6.07334C1.60477 4.89795 2.31 4.21475 2.50043 4.0215C2.69086 3.82838 2.96121 3.9226 3.14226 4.0215C3.32332 4.12053 7.86176 8.66635 8.06437 8.89463C8.26687 9.12291 8.48156 9.46346 7.90019 9.46346C7.31871 9.46346 1.60629 9.41353 1.11328 9.37955C0.620156 9.34545 0.474609 9.05787 0.474609 8.81224C0.474609 8.56662 0.621679 7.24885 1.11328 6.07334ZM6.60375 1.01635C7.78254 0.532715 8.62289 0.564472 8.89418 0.562597C9.16547 0.560722 9.28992 0.818418 9.34805 1.01635C9.40605 1.21439 9.44824 7.6767 9.43008 7.98127C9.41179 8.28596 9.41683 8.62381 9.00574 8.2126C8.59453 7.8015 4.59047 3.72689 4.26598 3.35424C3.94137 2.98146 4.0418 2.67514 4.21559 2.50146C4.38926 2.32779 5.42484 1.5001 6.60375 1.01635ZM13.8098 1.11279C14.9852 1.60428 15.6684 2.30951 15.8617 2.49994C16.0548 2.69037 15.9606 2.96072 15.8617 3.14178C15.7627 3.32283 11.2168 7.86127 10.9886 8.06388C10.7603 8.26638 10.4197 8.48107 10.4197 7.89971C10.4197 7.31822 10.4696 1.6058 10.5036 1.11279C10.5377 0.619668 10.8253 0.474121 11.0709 0.474121C11.3166 0.474121 12.6343 0.621191 13.8098 1.11279ZM18.8668 6.60326C19.3505 7.78205 19.3187 8.6224 19.3206 8.89369C19.3225 9.16498 19.0648 9.28943 18.8668 9.34756C18.6688 9.40557 12.2065 9.44775 11.9019 9.42959C11.5972 9.41131 11.2594 9.41635 11.6706 9.00525C12.0817 8.59404 16.1563 4.58998 16.5289 4.26549C16.9017 3.94088 17.208 4.04131 17.3817 4.2151C17.5554 4.38877 18.3831 5.42435 18.8668 6.60326ZM18.7704 13.9265C18.2789 15.1019 17.5737 15.7851 17.3832 15.9784C17.1928 16.1715 16.9225 16.0773 16.7414 15.9784C16.5603 15.8794 12.0219 11.3335 11.8193 11.1053C11.6168 10.877 11.4021 10.5364 11.9835 10.5364C12.565 10.5364 18.2774 10.5863 18.7704 10.6203C19.2635 10.6544 19.4091 10.942 19.4091 11.1876C19.4091 11.4333 19.262 12.751 18.7704 13.9265ZM13.2799 18.9835C12.1011 19.4672 11.2608 19.4354 10.9895 19.4373C10.7182 19.4392 10.5937 19.1815 10.5356 18.9835C10.4776 18.7855 10.4354 12.3232 10.4536 12.0186C10.4719 11.7139 10.4668 11.3761 10.8779 11.7873C11.2891 12.1984 15.2932 16.273 15.6177 16.6456C15.9423 17.0184 15.8419 17.3247 15.6681 17.4984C15.4944 17.6721 14.4587 18.4998 13.2798 18.9835H13.2799ZM6.07383 18.8871C4.89844 18.3956 4.21523 17.6904 4.02199 17.4999C3.82887 17.3095 3.92309 17.0392 4.02199 16.8581C4.12101 16.677 8.66683 12.1386 8.89511 11.936C9.1234 11.7335 9.46394 11.5188 9.46394 12.1002C9.46394 12.6817 9.41402 18.3941 9.38004 18.8871C9.34594 19.3802 9.05836 19.5258 8.81273 19.5258C8.56711 19.5258 7.24933 19.3787 6.07383 18.8871ZM1.01684 13.3966C0.533203 12.2178 0.564961 11.3775 0.563086 11.1062C0.561211 10.8349 0.818906 10.7104 1.01684 10.6523C1.21488 10.5943 7.67719 10.5521 7.98176 10.5703C8.28644 10.5886 8.6243 10.5835 8.21308 10.9946C7.80199 11.4058 3.72738 15.4099 3.35473 15.7344C2.98195 16.059 2.67562 15.9586 2.50195 15.7848C2.32828 15.6111 1.50059 14.5754 1.01684 13.3965V13.3966Z" fill="white"/>
</svg>
