<svg width="20" height="16" viewBox="0 0 20 16" fill="none" xmlns="http://www.w3.org/2000/svg">
<path d="M16 9V7H20V9H16ZM17.2 16L14 13.6L15.2 12L18.4 14.4L17.2 16ZM15.2 4L14 2.4L17.2 0L18.4 1.6L15.2 4ZM3 15V11H2C1.45 11 0.979333 10.8043 0.588 10.413C0.196667 10.0217 0.000666667 9.55067 0 9V7C0 6.45 0.196 5.97933 0.588 5.588C0.98 5.19667 1.45067 5.00067 2 5H6L11 2V14L6 11H5V15H3ZM12 11.35V4.65C12.45 5.05 12.8127 5.53767 13.088 6.113C13.3633 6.68833 13.5007 7.31733 13.5 8C13.5 8.68333 13.3623 9.31267 13.087 9.888C12.8117 10.4633 12.4493 10.9507 12 11.35Z" fill="white"/>
</svg>
